<svg width="1000" height="360" xmlns="http://www.w3.org/2000/svg" xmlns:xlink="http://www.w3.org/1999/xlink" version="1.1" baseProfile="full" viewBox="0 0 1000 360">
<rect width="1000" height="360" x="0" y="0" fill="none"></rect>
<path d="M70.5 10L70.5 300" fill="none" pointer-events="visible" stroke="#C5CBD1" class="zr0-cls-0"></path>
<path d="M251.5 10L251.5 300" fill="none" pointer-events="visible" stroke="#C5CBD1" class="zr0-cls-0"></path>
<path d="M432.5 10L432.5 300" fill="none" pointer-events="visible" stroke="#C5CBD1" class="zr0-cls-0"></path>
<path d="M613.5 10L613.5 300" fill="none" pointer-events="visible" stroke="#C5CBD1" class="zr0-cls-0"></path>
<path d="M794.5 10L794.5 300" fill="none" pointer-events="visible" stroke="#C5CBD1" class="zr0-cls-0"></path>
<path d="M975.5 10L975.5 300" fill="none" pointer-events="visible" stroke="#C5CBD1" class="zr0-cls-0"></path>
<text dominant-baseline="central" text-anchor="end" style="font-size:12px;font-family:ProximaNova, Arial, sans-serif;" transform="translate(62 82.5)" fill="#54555a">2025</text>
<text dominant-baseline="central" text-anchor="end" style="font-size:12px;font-family:ProximaNova, Arial, sans-serif;" transform="translate(62 227.5)" fill="#54555a">2024</text>
<text dominant-baseline="central" text-anchor="middle" style="font-size:12px;font-family:ProximaNova, Arial, sans-serif;" y="3.5" transform="translate(70 308)" fill="#54555a">0%</text>
<text dominant-baseline="central" text-anchor="middle" style="font-size:12px;font-family:ProximaNova, Arial, sans-serif;" y="3.5" transform="translate(251 308)" fill="#54555a">20%</text>
<text dominant-baseline="central" text-anchor="middle" style="font-size:12px;font-family:ProximaNova, Arial, sans-serif;" y="3.5" transform="translate(432 308)" fill="#54555a">40%</text>
<text dominant-baseline="central" text-anchor="middle" style="font-size:12px;font-family:ProximaNova, Arial, sans-serif;" y="3.5" transform="translate(613 308)" fill="#54555a">60%</text>
<text dominant-baseline="central" text-anchor="middle" style="font-size:12px;font-family:ProximaNova, Arial, sans-serif;" y="3.5" transform="translate(794 308)" fill="#54555a">80%</text>
<text dominant-baseline="central" text-anchor="middle" style="font-size:12px;font-family:ProximaNova, Arial, sans-serif;" y="3.5" transform="translate(975 308)" fill="#54555a">100%</text>
<path d="M70 54.5l81.4 0l0 56l-81.4 0Z" fill="#C3D51F" ecmeta_series_index="0" ecmeta_data_index="0" ecmeta_ssr_type="chart" ecmeta_silent="true" class="zr0-cls-1 zr0-cls-0"></path>
<path d="M70 199.5l108.6 0l0 56l-108.6 0Z" fill="#C3D51F" ecmeta_series_index="0" ecmeta_data_index="1" ecmeta_ssr_type="chart" ecmeta_silent="true" class="zr0-cls-2 zr0-cls-0"></path>
<path d="M151.5 54.5l823.6 0l0 56l-823.5 0Z" fill="#0069B3" ecmeta_series_index="1" ecmeta_data_index="0" ecmeta_ssr_type="chart" ecmeta_silent="true" class="zr0-cls-3 zr0-cls-0"></path>
<path d="M178.6 199.5l796.4 0l0 56l-796.4 0Z" fill="#0069B3" ecmeta_series_index="1" ecmeta_data_index="1" ecmeta_ssr_type="chart" ecmeta_silent="true" class="zr0-cls-4 zr0-cls-0"></path>
<path d="M-7 -12l14 0l0 7l-14 0Z" transform="translate(110.725 82.5)" fill="none" pointer-events="visible" class="zr0-cls-0"></path>
<text dominant-baseline="central" text-anchor="middle" style="font-size:14px;font-family:ProximaNova, Arial, sans-serif;font-weight:bold;" y="-8.5" transform="translate(110.725 82.5)" fill="#283000">9%</text>
<path d="M-17.5 6.5l35 0l0 7l-35 0Z" transform="translate(110.725 82.5)" fill="none" pointer-events="visible" class="zr0-cls-0"></path>
<text dominant-baseline="central" text-anchor="middle" style="font-size:13px;font-family:ProximaNova, Arial, sans-serif;" y="10" transform="translate(110.725 82.5)" fill="#283000">$442M</text>
<path d="M-10.5 -12l21 0l0 7l-21 0Z" transform="translate(124.3 227.5)" fill="none" pointer-events="visible" class="zr0-cls-0"></path>
<text dominant-baseline="central" text-anchor="middle" style="font-size:14px;font-family:ProximaNova, Arial, sans-serif;font-weight:bold;" y="-8.5" transform="translate(124.3 227.5)" fill="#283000">12%</text>
<path d="M-17.5 6.5l35 0l0 7l-35 0Z" transform="translate(124.3 227.5)" fill="none" pointer-events="visible" class="zr0-cls-0"></path>
<text dominant-baseline="central" text-anchor="middle" style="font-size:13px;font-family:ProximaNova, Arial, sans-serif;" y="10" transform="translate(124.3 227.5)" fill="#283000">$581M</text>
<path d="M-10.5 -12l21 0l0 7l-21 0Z" transform="translate(563.225 82.5)" fill="none" pointer-events="visible" class="zr0-cls-0"></path>
<text dominant-baseline="central" text-anchor="middle" style="font-size:14px;font-family:ProximaNova, Arial, sans-serif;font-weight:bold;" y="-8.5" transform="translate(563.225 82.5)" fill="#ffffff">91%</text>
<path d="M-24.5 6.5l49 0l0 7l-49 0Z" transform="translate(563.225 82.5)" fill="none" pointer-events="visible" class="zr0-cls-0"></path>
<text dominant-baseline="central" text-anchor="middle" style="font-size:13px;font-family:ProximaNova, Arial, sans-serif;" y="10" transform="translate(563.225 82.5)" fill="#ffffff">$4,598M</text>
<path d="M-10.5 -12l21 0l0 7l-21 0Z" transform="translate(576.8 227.5)" fill="none" pointer-events="visible" class="zr0-cls-0"></path>
<text dominant-baseline="central" text-anchor="middle" style="font-size:14px;font-family:ProximaNova, Arial, sans-serif;font-weight:bold;" y="-8.5" transform="translate(576.8 227.5)" fill="#ffffff">88%</text>
<path d="M-24.5 6.5l49 0l0 7l-49 0Z" transform="translate(576.8 227.5)" fill="none" pointer-events="visible" class="zr0-cls-0"></path>
<text dominant-baseline="central" text-anchor="middle" style="font-size:13px;font-family:ProximaNova, Arial, sans-serif;" y="10" transform="translate(576.8 227.5)" fill="#ffffff">$4,344M</text>
<path d="M-5 -5l316 0l0 18l-316 0Z" transform="translate(347 347)" fill="rgb(0,0,0)" fill-opacity="0" stroke="#b7b9be" stroke-width="0" class="zr0-cls-0"></path>
<path d="M0 0l24 0l0 8l-24 0Z" transform="translate(347 347)" fill="#C3D51F" ecmeta_series_index="0" ecmeta_data_index="0" ecmeta_ssr_type="legend" ecmeta_silent="true" class="zr0-cls-0"></path>
<text dominant-baseline="central" text-anchor="start" style="font-size:15px;font-family:ProximaNova, Arial, sans-serif;" xml:space="preserve" x="29" y="4" transform="translate(347 347)" fill="#222222">Regular resources</text>
<path d="M0 0l148 0l0 8l-148 0Z" transform="translate(347 347)" fill="none" pointer-events="visible" ecmeta_series_index="0" ecmeta_data_index="0" ecmeta_ssr_type="legend" class="zr0-cls-5"></path>
<path d="M0 0l24 0l0 8l-24 0Z" transform="translate(519 347)" fill="#0069B3" ecmeta_series_index="1" ecmeta_data_index="1" ecmeta_ssr_type="legend" ecmeta_silent="true" class="zr0-cls-0"></path>
<text dominant-baseline="central" text-anchor="start" style="font-size:15px;font-family:ProximaNova, Arial, sans-serif;" xml:space="preserve" x="29" y="4" transform="translate(519 347)" fill="#222222">Other resources</text>
<path d="M0 0l134 0l0 8l-134 0Z" transform="translate(519 347)" fill="none" pointer-events="visible" ecmeta_series_index="1" ecmeta_data_index="1" ecmeta_ssr_type="legend" class="zr0-cls-5"></path>
<style ><![CDATA[
.zr0-cls-0:hover {
pointer-events:none;
}
.zr0-cls-1 {
animation:zr0-ani-0 1s cubic-bezier(0.65,0,0.35,1) both;
}
.zr0-cls-2 {
animation:zr0-ani-1 1s cubic-bezier(0.65,0,0.35,1) both;
}
.zr0-cls-3 {
animation:zr0-ani-2 1s cubic-bezier(0.65,0,0.35,1) both;
}
.zr0-cls-4 {
animation:zr0-ani-3 1s cubic-bezier(0.65,0,0.35,1) both;
}
.zr0-cls-5:hover {
cursor:pointer;
fill:rgba(0,0,0,0);
}
@keyframes zr0-ani-0 {
0% {
d:path("M70 54.5l0 0l0 56l0 0Z");
}
100% {
d:path("M70 54.5l81.4 0l0 56l-81.4 0Z");
}
}
@keyframes zr0-ani-1 {
0% {
d:path("M70 199.5l0 0l0 56l0 0Z");
}
100% {
d:path("M70 199.5l108.6 0l0 56l-108.6 0Z");
}
}
@keyframes zr0-ani-2 {
0% {
d:path("M151.5 54.5l0 0l0 56l0 0Z");
}
100% {
d:path("M151.5 54.5l823.6 0l0 56l-823.5 0Z");
}
}
@keyframes zr0-ani-3 {
0% {
d:path("M178.6 199.5l0 0l0 56l0 0Z");
}
100% {
d:path("M178.6 199.5l796.4 0l0 56l-796.4 0Z");
}
}
]]>

</style>
</svg>